<?xml version="1.0" encoding="UTF-8"?>
<svg xmlns="http://www.w3.org/2000/svg" xmlns:xlink="http://www.w3.org/1999/xlink" width="155.9055pt" height="50pt" viewBox="0 0 155.9055 43" version="1.1">
<g id="surface1">
<path style=" stroke:none;fill-rule:nonzero;fill:rgb(10.195923%,10.195923%,9.411621%);fill-opacity:1;" d="M 48.398438 21.207031 L 48.382812 12.417969 L 44.082031 19.84375 L 43.714844 19.84375 L 39.417969 12.445312 L 39.417969 21.207031 L 38.683594 21.207031 L 38.683594 10.933594 L 39.316406 10.933594 L 43.90625 18.875 L 48.5 10.933594 L 49.117188 10.933594 L 49.132812 21.207031 Z M 56.730469 21.28125 C 55.429688 21.28125 54.421875 20.902344 53.703125 20.148438 C 52.984375 19.398438 52.621094 18.296875 52.621094 16.847656 L 52.621094 10.933594 L 53.371094 10.933594 L 53.371094 16.820312 C 53.371094 18.082031 53.660156 19.023438 54.238281 19.652344 C 54.8125 20.277344 55.652344 20.589844 56.746094 20.589844 C 57.832031 20.589844 58.664062 20.277344 59.242188 19.652344 C 59.816406 19.023438 60.105469 18.082031 60.105469 16.820312 L 60.105469 10.933594 L 60.855469 10.933594 L 60.855469 16.847656 C 60.855469 18.296875 60.492188 19.398438 59.769531 20.148438 C 59.046875 20.902344 58.03125 21.28125 56.730469 21.28125 Z M 71.476562 21.207031 L 69.027344 17.773438 C 68.664062 17.820312 68.332031 17.847656 68.03125 17.847656 L 65.09375 17.847656 L 65.09375 21.207031 L 64.347656 21.207031 L 64.347656 10.933594 L 68.03125 10.933594 C 69.320312 10.933594 70.332031 11.242188 71.066406 11.851562 C 71.800781 12.464844 72.167969 13.3125 72.167969 14.398438 C 72.167969 15.210938 71.960938 15.894531 71.542969 16.445312 C 71.128906 16.996094 70.535156 17.386719 69.761719 17.613281 L 72.328125 21.207031 Z M 68.03125 17.1875 C 69.125 17.1875 69.960938 16.945312 70.539062 16.460938 C 71.117188 15.976562 71.40625 15.289062 71.40625 14.398438 C 71.40625 13.507812 71.117188 12.820312 70.539062 12.335938 C 69.960938 11.851562 69.125 11.609375 68.03125 11.609375 L 65.09375 11.609375 L 65.09375 17.1875 Z M 81.265625 18.316406 L 75.308594 18.316406 L 74 21.207031 L 73.195312 21.207031 L 77.917969 10.933594 L 78.667969 10.933594 L 83.394531 21.207031 L 82.585938 21.207031 Z M 80.988281 17.683594 L 78.285156 11.757812 L 75.601562 17.683594 Z M 88.308594 16.144531 L 86.003906 18.507812 L 86.003906 21.207031 L 85.257812 21.207031 L 85.257812 10.933594 L 86.003906 10.933594 L 86.003906 17.539062 L 92.417969 10.933594 L 93.328125 10.933594 L 88.808594 15.601562 L 93.632812 21.207031 L 92.726562 21.207031 Z M 101.542969 18.316406 L 95.585938 18.316406 L 94.28125 21.207031 L 93.472656 21.207031 L 98.199219 10.933594 L 98.945312 10.933594 L 103.671875 21.207031 L 102.863281 21.207031 Z M 101.265625 17.683594 L 98.566406 11.757812 L 95.878906 17.683594 Z M 113.898438 10.933594 L 113.898438 21.207031 L 113.28125 21.207031 L 106.28125 12.285156 L 106.28125 21.207031 L 105.535156 21.207031 L 105.535156 10.933594 L 106.164062 10.933594 L 113.148438 19.855469 L 113.148438 10.933594 Z M 117.476562 10.933594 L 118.226562 10.933594 L 118.226562 21.207031 L 117.476562 21.207031 Z M 117.476562 10.933594 "/>
<path style=" stroke:none;fill-rule:nonzero;fill:rgb(10.195923%,10.195923%,9.411621%);fill-opacity:1;" d="M 51.011719 56.183594 L 51.011719 59.644531 L 50.757812 59.644531 L 50.757812 56.410156 L 49.914062 56.410156 L 49.914062 56.183594 Z M 53.238281 59.667969 C 52.976562 59.667969 52.742188 59.597656 52.535156 59.453125 C 52.328125 59.308594 52.167969 59.105469 52.054688 58.84375 C 51.941406 58.578125 51.886719 58.269531 51.886719 57.914062 C 51.886719 57.558594 51.941406 57.25 52.054688 56.984375 C 52.167969 56.722656 52.328125 56.519531 52.535156 56.375 C 52.742188 56.230469 52.976562 56.160156 53.238281 56.160156 C 53.503906 56.160156 53.738281 56.230469 53.945312 56.375 C 54.148438 56.519531 54.308594 56.722656 54.421875 56.984375 C 54.535156 57.25 54.59375 57.558594 54.59375 57.914062 C 54.59375 58.269531 54.535156 58.578125 54.421875 58.84375 C 54.308594 59.105469 54.148438 59.308594 53.945312 59.453125 C 53.738281 59.597656 53.503906 59.667969 53.238281 59.667969 Z M 53.238281 59.4375 C 53.457031 59.4375 53.648438 59.375 53.816406 59.253906 C 53.980469 59.136719 54.109375 58.960938 54.203125 58.730469 C 54.296875 58.503906 54.339844 58.230469 54.339844 57.914062 C 54.339844 57.597656 54.296875 57.324219 54.203125 57.097656 C 54.109375 56.867188 53.980469 56.691406 53.816406 56.570312 C 53.648438 56.453125 53.457031 56.390625 53.238281 56.390625 C 53.023438 56.390625 52.832031 56.453125 52.664062 56.570312 C 52.496094 56.691406 52.367188 56.867188 52.277344 57.097656 C 52.183594 57.324219 52.136719 57.597656 52.136719 57.914062 C 52.136719 58.230469 52.183594 58.503906 52.277344 58.730469 C 52.367188 58.960938 52.496094 59.136719 52.664062 59.253906 C 52.832031 59.375 53.023438 59.4375 53.238281 59.4375 Z M 56.492188 59.667969 C 56.226562 59.667969 55.992188 59.597656 55.785156 59.453125 C 55.582031 59.308594 55.421875 59.105469 55.308594 58.84375 C 55.195312 58.578125 55.136719 58.269531 55.136719 57.914062 C 55.136719 57.558594 55.195312 57.25 55.308594 56.984375 C 55.421875 56.722656 55.582031 56.519531 55.785156 56.375 C 55.992188 56.230469 56.226562 56.160156 56.492188 56.160156 C 56.753906 56.160156 56.988281 56.230469 57.195312 56.375 C 57.402344 56.519531 57.5625 56.722656 57.675781 56.984375 C 57.789062 57.25 57.84375 57.558594 57.84375 57.914062 C 57.84375 58.269531 57.789062 58.578125 57.675781 58.84375 C 57.5625 59.105469 57.402344 59.308594 57.195312 59.453125 C 56.988281 59.597656 56.753906 59.667969 56.492188 59.667969 Z M 56.492188 59.4375 C 56.707031 59.4375 56.902344 59.375 57.066406 59.253906 C 57.234375 59.136719 57.363281 58.960938 57.453125 58.730469 C 57.546875 58.503906 57.59375 58.230469 57.59375 57.914062 C 57.59375 57.597656 57.546875 57.324219 57.453125 57.097656 C 57.363281 56.867188 57.234375 56.691406 57.066406 56.570312 C 56.902344 56.453125 56.707031 56.390625 56.492188 56.390625 C 56.273438 56.390625 56.082031 56.453125 55.914062 56.570312 C 55.75 56.691406 55.621094 56.867188 55.527344 57.097656 C 55.433594 57.324219 55.390625 57.597656 55.390625 57.914062 C 55.390625 58.230469 55.433594 58.503906 55.527344 58.730469 C 55.621094 58.960938 55.75 59.136719 55.914062 59.253906 C 56.082031 59.375 56.273438 59.4375 56.492188 59.4375 Z M 59.101562 58.03125 C 58.871094 58.03125 58.691406 57.945312 58.550781 57.777344 C 58.410156 57.605469 58.339844 57.378906 58.339844 57.097656 C 58.339844 56.820312 58.410156 56.59375 58.550781 56.421875 C 58.691406 56.25 58.871094 56.164062 59.101562 56.164062 C 59.328125 56.164062 59.511719 56.25 59.652344 56.421875 C 59.796875 56.59375 59.867188 56.820312 59.867188 57.097656 C 59.867188 57.378906 59.796875 57.605469 59.652344 57.777344 C 59.511719 57.945312 59.328125 58.03125 59.101562 58.03125 Z M 61.210938 56.183594 L 61.421875 56.183594 L 59.0625 59.644531 L 58.847656 59.644531 Z M 59.101562 57.863281 C 59.273438 57.863281 59.414062 57.796875 59.519531 57.660156 C 59.625 57.523438 59.679688 57.335938 59.679688 57.097656 C 59.679688 56.859375 59.625 56.675781 59.519531 56.539062 C 59.414062 56.402344 59.273438 56.332031 59.101562 56.332031 C 58.929688 56.332031 58.789062 56.402344 58.683594 56.539062 C 58.578125 56.679688 58.527344 56.863281 58.527344 57.097656 C 58.527344 57.332031 58.578125 57.519531 58.683594 57.65625 C 58.789062 57.796875 58.929688 57.863281 59.101562 57.863281 Z M 61.171875 59.664062 C 60.945312 59.664062 60.757812 59.578125 60.617188 59.40625 C 60.476562 59.234375 60.40625 59.007812 60.40625 58.730469 C 60.40625 58.449219 60.476562 58.222656 60.617188 58.050781 C 60.757812 57.882812 60.945312 57.796875 61.171875 57.796875 C 61.398438 57.796875 61.582031 57.882812 61.722656 58.050781 C 61.863281 58.222656 61.933594 58.449219 61.933594 58.730469 C 61.933594 59.007812 61.863281 59.234375 61.722656 59.40625 C 61.582031 59.578125 61.398438 59.664062 61.171875 59.664062 Z M 61.171875 59.496094 C 61.34375 59.496094 61.480469 59.425781 61.585938 59.289062 C 61.691406 59.148438 61.746094 58.964844 61.746094 58.730469 C 61.746094 58.496094 61.691406 58.308594 61.585938 58.171875 C 61.480469 58.03125 61.34375 57.964844 61.171875 57.964844 C 60.996094 57.964844 60.855469 58.03125 60.75 58.167969 C 60.644531 58.304688 60.59375 58.492188 60.59375 58.730469 C 60.59375 58.964844 60.644531 59.152344 60.75 59.289062 C 60.855469 59.425781 60.996094 59.496094 61.171875 59.496094 Z M 64.832031 58.449219 L 64.207031 58.449219 L 64.207031 59.644531 L 63.957031 59.644531 L 63.957031 57.0625 L 64.207031 57.0625 L 64.207031 58.234375 L 64.832031 58.234375 L 65.804688 57.0625 L 66.078125 57.0625 L 65.03125 58.3125 L 66.15625 59.644531 L 65.859375 59.644531 Z M 67.699219 59.664062 C 67.457031 59.664062 67.234375 59.605469 67.039062 59.496094 C 66.84375 59.382812 66.6875 59.226562 66.578125 59.027344 C 66.464844 58.828125 66.410156 58.605469 66.410156 58.355469 C 66.410156 58.101562 66.464844 57.878906 66.578125 57.679688 C 66.6875 57.480469 66.84375 57.324219 67.039062 57.210938 C 67.234375 57.101562 67.457031 57.042969 67.699219 57.042969 C 67.941406 57.042969 68.164062 57.101562 68.359375 57.210938 C 68.554688 57.324219 68.707031 57.480469 68.820312 57.679688 C 68.933594 57.878906 68.988281 58.101562 68.988281 58.355469 C 68.988281 58.605469 68.933594 58.828125 68.820312 59.027344 C 68.707031 59.226562 68.554688 59.382812 68.359375 59.496094 C 68.164062 59.605469 67.941406 59.664062 67.699219 59.664062 Z M 67.699219 59.441406 C 67.898438 59.441406 68.074219 59.394531 68.230469 59.300781 C 68.386719 59.210938 68.511719 59.082031 68.601562 58.917969 C 68.691406 58.753906 68.738281 58.566406 68.738281 58.355469 C 68.738281 58.144531 68.691406 57.957031 68.601562 57.789062 C 68.511719 57.625 68.386719 57.496094 68.230469 57.40625 C 68.074219 57.3125 67.898438 57.265625 67.699219 57.265625 C 67.5 57.265625 67.324219 57.3125 67.167969 57.40625 C 67.011719 57.496094 66.886719 57.625 66.796875 57.789062 C 66.707031 57.957031 66.660156 58.144531 66.660156 58.355469 C 66.660156 58.566406 66.707031 58.753906 66.796875 58.917969 C 66.886719 59.082031 67.011719 59.210938 67.167969 59.300781 C 67.324219 59.394531 67.5 59.441406 67.699219 59.441406 Z M 70.667969 58.449219 L 70.042969 58.449219 L 70.042969 59.644531 L 69.792969 59.644531 L 69.792969 57.0625 L 70.042969 57.0625 L 70.042969 58.234375 L 70.667969 58.234375 L 71.644531 57.0625 L 71.914062 57.0625 L 70.867188 58.3125 L 71.992188 59.644531 L 71.695312 59.644531 Z M 73.535156 59.664062 C 73.292969 59.664062 73.070312 59.605469 72.875 59.496094 C 72.679688 59.382812 72.527344 59.226562 72.414062 59.027344 C 72.300781 58.828125 72.246094 58.605469 72.246094 58.355469 C 72.246094 58.101562 72.300781 57.878906 72.414062 57.679688 C 72.527344 57.480469 72.679688 57.324219 72.875 57.210938 C 73.070312 57.101562 73.292969 57.042969 73.535156 57.042969 C 73.777344 57.042969 74 57.101562 74.195312 57.210938 C 74.390625 57.324219 74.542969 57.480469 74.65625 57.679688 C 74.769531 57.878906 74.824219 58.101562 74.824219 58.355469 C 74.824219 58.605469 74.769531 58.828125 74.65625 59.027344 C 74.542969 59.226562 74.390625 59.382812 74.195312 59.496094 C 74 59.605469 73.777344 59.664062 73.535156 59.664062 Z M 73.535156 59.441406 C 73.734375 59.441406 73.910156 59.394531 74.066406 59.300781 C 74.222656 59.210938 74.347656 59.082031 74.4375 58.917969 C 74.527344 58.753906 74.574219 58.566406 74.574219 58.355469 C 74.574219 58.144531 74.527344 57.957031 74.4375 57.789062 C 74.347656 57.625 74.222656 57.496094 74.066406 57.40625 C 73.910156 57.3125 73.734375 57.265625 73.535156 57.265625 C 73.335938 57.265625 73.160156 57.3125 73.003906 57.40625 C 72.847656 57.496094 72.722656 57.625 72.632812 57.789062 C 72.542969 57.957031 72.496094 58.144531 72.496094 58.355469 C 72.496094 58.566406 72.542969 58.753906 72.632812 58.917969 C 72.722656 59.082031 72.847656 59.210938 73.003906 59.300781 C 73.160156 59.394531 73.335938 59.441406 73.535156 59.441406 Z M 76.671875 59.664062 C 76.421875 59.664062 76.199219 59.605469 76 59.496094 C 75.804688 59.382812 75.648438 59.226562 75.535156 59.027344 C 75.425781 58.828125 75.367188 58.605469 75.367188 58.355469 C 75.367188 58.101562 75.425781 57.875 75.535156 57.675781 C 75.648438 57.476562 75.804688 57.320312 76 57.210938 C 76.199219 57.097656 76.421875 57.042969 76.671875 57.042969 C 76.878906 57.042969 77.070312 57.085938 77.238281 57.164062 C 77.410156 57.246094 77.546875 57.363281 77.652344 57.519531 L 77.46875 57.652344 C 77.375 57.523438 77.261719 57.425781 77.125 57.363281 C 76.988281 57.296875 76.839844 57.265625 76.671875 57.265625 C 76.472656 57.265625 76.292969 57.3125 76.132812 57.402344 C 75.972656 57.492188 75.847656 57.621094 75.757812 57.785156 C 75.664062 57.949219 75.621094 58.140625 75.621094 58.355469 C 75.621094 58.566406 75.664062 58.757812 75.757812 58.921875 C 75.847656 59.085938 75.972656 59.214844 76.132812 59.304688 C 76.292969 59.394531 76.472656 59.441406 76.671875 59.441406 C 76.839844 59.441406 76.988281 59.410156 77.125 59.34375 C 77.261719 59.28125 77.375 59.183594 77.46875 59.054688 L 77.652344 59.1875 C 77.546875 59.34375 77.410156 59.460938 77.238281 59.542969 C 77.070312 59.621094 76.878906 59.664062 76.671875 59.664062 Z M 79.367188 59.664062 C 79.121094 59.664062 78.902344 59.605469 78.707031 59.496094 C 78.511719 59.382812 78.355469 59.226562 78.246094 59.027344 C 78.132812 58.828125 78.078125 58.605469 78.078125 58.355469 C 78.078125 58.101562 78.132812 57.878906 78.246094 57.679688 C 78.355469 57.480469 78.511719 57.324219 78.707031 57.210938 C 78.902344 57.101562 79.121094 57.042969 79.367188 57.042969 C 79.609375 57.042969 79.832031 57.101562 80.027344 57.210938 C 80.222656 57.324219 80.375 57.480469 80.488281 57.679688 C 80.601562 57.878906 80.65625 58.101562 80.65625 58.355469 C 80.65625 58.605469 80.601562 58.828125 80.488281 59.027344 C 80.375 59.226562 80.222656 59.382812 80.027344 59.496094 C 79.832031 59.605469 79.609375 59.664062 79.367188 59.664062 Z M 79.367188 59.441406 C 79.5625 59.441406 79.742188 59.394531 79.898438 59.300781 C 80.054688 59.210938 80.175781 59.082031 80.269531 58.917969 C 80.359375 58.753906 80.402344 58.566406 80.402344 58.355469 C 80.402344 58.144531 80.359375 57.957031 80.269531 57.789062 C 80.175781 57.625 80.054688 57.496094 79.898438 57.40625 C 79.742188 57.3125 79.5625 57.265625 79.367188 57.265625 C 79.167969 57.265625 78.992188 57.3125 78.835938 57.40625 C 78.679688 57.496094 78.554688 57.625 78.464844 57.789062 C 78.375 57.957031 78.328125 58.144531 78.328125 58.355469 C 78.328125 58.566406 78.375 58.753906 78.464844 58.917969 C 78.554688 59.082031 78.679688 59.210938 78.835938 59.300781 C 78.992188 59.394531 79.167969 59.441406 79.367188 59.441406 Z M 82.988281 58.3125 C 83.367188 58.378906 83.558594 58.59375 83.558594 58.953125 C 83.558594 59.175781 83.476562 59.347656 83.3125 59.464844 C 83.148438 59.585938 82.90625 59.644531 82.578125 59.644531 L 81.460938 59.644531 L 81.460938 57.0625 L 82.550781 57.0625 C 82.835938 57.0625 83.058594 57.121094 83.222656 57.234375 C 83.386719 57.347656 83.46875 57.511719 83.46875 57.722656 C 83.46875 57.871094 83.425781 58 83.34375 58.097656 C 83.257812 58.199219 83.140625 58.269531 82.988281 58.3125 Z M 81.703125 58.238281 L 82.535156 58.238281 C 82.753906 58.238281 82.925781 58.199219 83.042969 58.113281 C 83.160156 58.03125 83.222656 57.910156 83.222656 57.75 C 83.222656 57.589844 83.164062 57.46875 83.046875 57.386719 C 82.929688 57.308594 82.757812 57.265625 82.535156 57.265625 L 81.703125 57.265625 Z M 82.574219 59.441406 C 83.066406 59.441406 83.308594 59.273438 83.308594 58.941406 C 83.308594 58.765625 83.253906 58.636719 83.140625 58.554688 C 83.03125 58.472656 82.855469 58.433594 82.613281 58.433594 L 81.703125 58.433594 L 81.703125 59.441406 Z M 85.453125 58.003906 C 85.773438 58.007812 86.019531 58.078125 86.1875 58.210938 C 86.355469 58.347656 86.4375 58.550781 86.4375 58.8125 C 86.4375 59.085938 86.347656 59.296875 86.171875 59.441406 C 85.992188 59.585938 85.738281 59.65625 85.398438 59.652344 L 84.4375 59.644531 L 84.4375 57.0625 L 84.683594 57.0625 L 84.683594 57.992188 Z M 86.914062 57.0625 L 87.160156 57.0625 L 87.160156 59.644531 L 86.914062 59.644531 Z M 85.390625 59.457031 C 85.652344 59.457031 85.851562 59.40625 85.988281 59.296875 C 86.125 59.1875 86.191406 59.027344 86.191406 58.8125 C 86.191406 58.605469 86.125 58.453125 85.992188 58.351562 C 85.863281 58.25 85.660156 58.195312 85.390625 58.191406 L 84.683594 58.1875 L 84.683594 59.445312 Z M 88.222656 57.0625 L 88.46875 57.0625 L 88.46875 59.261719 L 90.308594 57.0625 L 90.523438 57.0625 L 90.523438 59.644531 L 90.277344 59.644531 L 90.277344 57.445312 L 88.441406 59.644531 L 88.222656 59.644531 Z M 89.363281 56.667969 C 89.15625 56.667969 88.988281 56.613281 88.859375 56.507812 C 88.730469 56.402344 88.664062 56.25 88.660156 56.0625 L 88.84375 56.0625 C 88.847656 56.195312 88.898438 56.304688 88.996094 56.382812 C 89.09375 56.460938 89.214844 56.5 89.363281 56.5 C 89.511719 56.5 89.632812 56.460938 89.730469 56.382812 C 89.824219 56.304688 89.875 56.195312 89.878906 56.0625 L 90.066406 56.0625 C 90.0625 56.25 89.996094 56.402344 89.867188 56.507812 C 89.738281 56.613281 89.570312 56.667969 89.363281 56.667969 Z M 94.390625 58.3125 C 94.769531 58.378906 94.957031 58.59375 94.957031 58.953125 C 94.957031 59.175781 94.875 59.347656 94.714844 59.464844 C 94.550781 59.585938 94.304688 59.644531 93.980469 59.644531 L 92.863281 59.644531 L 92.863281 57.0625 L 93.949219 57.0625 C 94.234375 57.0625 94.460938 57.121094 94.625 57.234375 C 94.785156 57.347656 94.867188 57.511719 94.867188 57.722656 C 94.867188 57.871094 94.828125 58 94.742188 58.097656 C 94.660156 58.199219 94.539062 58.269531 94.390625 58.3125 Z M 93.105469 58.238281 L 93.933594 58.238281 C 94.15625 58.238281 94.324219 58.199219 94.445312 58.113281 C 94.5625 58.03125 94.621094 57.910156 94.621094 57.75 C 94.621094 57.589844 94.5625 57.46875 94.445312 57.386719 C 94.328125 57.308594 94.160156 57.265625 93.933594 57.265625 L 93.105469 57.265625 Z M 93.972656 59.441406 C 94.464844 59.441406 94.710938 59.273438 94.710938 58.941406 C 94.710938 58.765625 94.65625 58.636719 94.542969 58.554688 C 94.429688 58.472656 94.253906 58.433594 94.011719 58.433594 L 93.105469 58.433594 L 93.105469 59.441406 Z M 96.863281 59.664062 C 96.621094 59.664062 96.402344 59.605469 96.207031 59.496094 C 96.007812 59.382812 95.855469 59.226562 95.742188 59.027344 C 95.632812 58.828125 95.574219 58.605469 95.574219 58.355469 C 95.574219 58.101562 95.632812 57.878906 95.742188 57.679688 C 95.855469 57.480469 96.007812 57.324219 96.207031 57.210938 C 96.402344 57.101562 96.621094 57.042969 96.863281 57.042969 C 97.109375 57.042969 97.328125 57.101562 97.523438 57.210938 C 97.71875 57.324219 97.875 57.480469 97.988281 57.679688 C 98.097656 57.878906 98.15625 58.101562 98.15625 58.355469 C 98.15625 58.605469 98.097656 58.828125 97.988281 59.027344 C 97.875 59.226562 97.71875 59.382812 97.523438 59.496094 C 97.328125 59.605469 97.109375 59.664062 96.863281 59.664062 Z M 96.863281 59.441406 C 97.0625 59.441406 97.238281 59.394531 97.394531 59.300781 C 97.550781 59.210938 97.675781 59.082031 97.765625 58.917969 C 97.855469 58.753906 97.902344 58.566406 97.902344 58.355469 C 97.902344 58.144531 97.855469 57.957031 97.765625 57.789062 C 97.675781 57.625 97.550781 57.496094 97.394531 57.40625 C 97.238281 57.3125 97.0625 57.265625 96.863281 57.265625 C 96.667969 57.265625 96.488281 57.3125 96.332031 57.40625 C 96.175781 57.496094 96.054688 57.625 95.964844 57.789062 C 95.871094 57.957031 95.828125 58.144531 95.828125 58.355469 C 95.828125 58.566406 95.871094 58.753906 95.964844 58.917969 C 96.054688 59.082031 96.175781 59.210938 96.332031 59.300781 C 96.488281 59.394531 96.667969 59.441406 96.863281 59.441406 Z M 100.003906 59.664062 C 99.753906 59.664062 99.527344 59.605469 99.332031 59.496094 C 99.132812 59.382812 98.976562 59.226562 98.867188 59.027344 C 98.753906 58.828125 98.699219 58.605469 98.699219 58.355469 C 98.699219 58.101562 98.753906 57.875 98.867188 57.675781 C 98.976562 57.476562 99.132812 57.320312 99.332031 57.210938 C 99.527344 57.097656 99.753906 57.042969 100.003906 57.042969 C 100.210938 57.042969 100.398438 57.085938 100.570312 57.164062 C 100.738281 57.246094 100.875 57.363281 100.980469 57.519531 L 100.796875 57.652344 C 100.707031 57.523438 100.59375 57.425781 100.453125 57.363281 C 100.320312 57.296875 100.167969 57.265625 100.003906 57.265625 C 99.800781 57.265625 99.621094 57.3125 99.460938 57.402344 C 99.300781 57.492188 99.175781 57.621094 99.085938 57.785156 C 98.996094 57.949219 98.949219 58.140625 98.949219 58.355469 C 98.949219 58.566406 98.996094 58.757812 99.085938 58.921875 C 99.175781 59.085938 99.300781 59.214844 99.460938 59.304688 C 99.621094 59.394531 99.800781 59.441406 100.003906 59.441406 C 100.167969 59.441406 100.320312 59.410156 100.453125 59.34375 C 100.59375 59.28125 100.707031 59.183594 100.796875 59.054688 L 100.980469 59.1875 C 100.875 59.34375 100.738281 59.460938 100.570312 59.542969 C 100.398438 59.621094 100.210938 59.664062 100.003906 59.664062 Z M 102.585938 58.449219 L 101.960938 58.449219 L 101.960938 59.644531 L 101.710938 59.644531 L 101.710938 57.0625 L 101.960938 57.0625 L 101.960938 58.234375 L 102.585938 58.234375 L 103.5625 57.0625 L 103.832031 57.0625 L 102.785156 58.3125 L 103.910156 59.644531 L 103.617188 59.644531 Z M 104.480469 59.242188 C 104.539062 59.242188 104.589844 59.261719 104.628906 59.304688 C 104.667969 59.347656 104.6875 59.394531 104.6875 59.449219 C 104.6875 59.484375 104.683594 59.519531 104.675781 59.554688 C 104.667969 59.589844 104.65625 59.632812 104.644531 59.679688 L 104.449219 60.351562 L 104.273438 60.351562 L 104.4375 59.652344 C 104.386719 59.640625 104.347656 59.617188 104.316406 59.582031 C 104.289062 59.546875 104.273438 59.503906 104.273438 59.449219 C 104.273438 59.390625 104.292969 59.34375 104.332031 59.300781 C 104.371094 59.261719 104.421875 59.242188 104.480469 59.242188 Z M 50.734375 63.859375 C 51.054688 63.859375 51.300781 63.941406 51.46875 64.101562 C 51.640625 64.265625 51.726562 64.507812 51.726562 64.824219 L 51.726562 66.457031 L 51.488281 66.457031 L 51.488281 66 C 51.40625 66.148438 51.289062 66.269531 51.128906 66.351562 C 50.972656 66.4375 50.78125 66.476562 50.5625 66.476562 C 50.273438 66.476562 50.046875 66.410156 49.882812 66.277344 C 49.714844 66.140625 49.632812 65.960938 49.632812 65.742188 C 49.632812 65.527344 49.707031 65.355469 49.863281 65.21875 C 50.015625 65.085938 50.257812 65.019531 50.59375 65.019531 L 51.480469 65.019531 L 51.480469 64.8125 C 51.480469 64.570312 51.414062 64.390625 51.285156 64.265625 C 51.15625 64.140625 50.964844 64.078125 50.714844 64.078125 C 50.542969 64.078125 50.378906 64.105469 50.222656 64.164062 C 50.066406 64.222656 49.933594 64.304688 49.824219 64.402344 L 49.703125 64.222656 C 49.828125 64.109375 49.984375 64.019531 50.164062 63.957031 C 50.347656 63.890625 50.535156 63.859375 50.734375 63.859375 Z M 50.59375 66.277344 C 50.808594 66.277344 50.992188 66.226562 51.140625 66.128906 C 51.292969 66.027344 51.40625 65.886719 51.480469 65.695312 L 51.480469 65.210938 L 50.601562 65.210938 C 50.347656 65.210938 50.164062 65.257812 50.050781 65.351562 C 49.9375 65.445312 49.878906 65.570312 49.878906 65.730469 C 49.878906 65.898438 49.941406 66.03125 50.066406 66.128906 C 50.191406 66.226562 50.367188 66.277344 50.59375 66.277344 Z M 54.03125 63.859375 C 54.269531 63.859375 54.488281 63.914062 54.683594 64.027344 C 54.875 64.140625 55.03125 64.292969 55.140625 64.492188 C 55.25 64.6875 55.304688 64.914062 55.304688 65.167969 C 55.304688 65.421875 55.25 65.648438 55.140625 65.847656 C 55.03125 66.046875 54.875 66.203125 54.683594 66.3125 C 54.488281 66.421875 54.269531 66.476562 54.03125 66.476562 C 53.800781 66.476562 53.597656 66.425781 53.414062 66.316406 C 53.226562 66.210938 53.085938 66.0625 52.984375 65.871094 L 52.984375 67.417969 L 52.734375 67.417969 L 52.734375 63.878906 L 52.972656 63.878906 L 52.972656 64.488281 C 53.074219 64.289062 53.21875 64.132812 53.40625 64.023438 C 53.589844 63.914062 53.800781 63.859375 54.03125 63.859375 Z M 54.015625 66.253906 C 54.214844 66.253906 54.390625 66.210938 54.550781 66.117188 C 54.707031 66.023438 54.832031 65.894531 54.921875 65.730469 C 55.011719 65.566406 55.058594 65.378906 55.058594 65.167969 C 55.058594 64.957031 55.011719 64.769531 54.921875 64.605469 C 54.832031 64.441406 54.707031 64.3125 54.550781 64.21875 C 54.390625 64.128906 54.214844 64.082031 54.015625 64.082031 C 53.816406 64.082031 53.640625 64.128906 53.484375 64.21875 C 53.328125 64.3125 53.203125 64.441406 53.113281 64.605469 C 53.023438 64.769531 52.976562 64.957031 52.976562 65.167969 C 52.976562 65.378906 53.023438 65.566406 53.113281 65.730469 C 53.203125 65.894531 53.328125 66.023438 53.484375 66.117188 C 53.640625 66.210938 53.816406 66.253906 54.015625 66.253906 Z M 57.136719 66.476562 C 56.894531 66.476562 56.675781 66.421875 56.480469 66.308594 C 56.28125 66.199219 56.128906 66.042969 56.015625 65.84375 C 55.90625 65.644531 55.847656 65.417969 55.847656 65.167969 C 55.847656 64.917969 55.90625 64.691406 56.015625 64.492188 C 56.128906 64.292969 56.28125 64.140625 56.480469 64.027344 C 56.675781 63.914062 56.894531 63.859375 57.136719 63.859375 C 57.382812 63.859375 57.601562 63.914062 57.796875 64.027344 C 57.996094 64.140625 58.148438 64.292969 58.261719 64.492188 C 58.371094 64.691406 58.429688 64.917969 58.429688 65.167969 C 58.429688 65.417969 58.371094 65.644531 58.261719 65.84375 C 58.148438 66.042969 57.996094 66.199219 57.796875 66.308594 C 57.601562 66.421875 57.382812 66.476562 57.136719 66.476562 Z M 57.136719 66.253906 C 57.335938 66.253906 57.511719 66.210938 57.667969 66.117188 C 57.828125 66.023438 57.949219 65.894531 58.039062 65.730469 C 58.132812 65.566406 58.175781 65.378906 58.175781 65.167969 C 58.175781 64.957031 58.132812 64.769531 58.039062 64.605469 C 57.949219 64.441406 57.828125 64.3125 57.667969 64.21875 C 57.511719 64.128906 57.335938 64.082031 57.136719 64.082031 C 56.941406 64.082031 56.765625 64.128906 56.605469 64.21875 C 56.449219 64.3125 56.328125 64.441406 56.238281 64.605469 C 56.144531 64.769531 56.101562 64.957031 56.101562 65.167969 C 56.101562 65.378906 56.144531 65.566406 56.238281 65.730469 C 56.328125 65.894531 56.449219 66.023438 56.605469 66.117188 C 56.765625 66.210938 56.941406 66.253906 57.136719 66.253906 Z M 62.039062 63.878906 L 62.039062 66.457031 L 61.8125 66.457031 L 61.8125 64.273438 L 60.691406 66.128906 L 60.578125 66.128906 L 59.460938 64.277344 L 59.460938 66.457031 L 59.234375 66.457031 L 59.234375 63.878906 L 59.476562 63.878906 L 60.640625 65.832031 L 61.8125 63.878906 Z M 63.964844 63.859375 C 64.28125 63.859375 64.527344 63.941406 64.699219 64.101562 C 64.871094 64.265625 64.957031 64.507812 64.957031 64.824219 L 64.957031 66.457031 L 64.71875 66.457031 L 64.71875 66 C 64.636719 66.148438 64.515625 66.269531 64.359375 66.351562 C 64.199219 66.4375 64.011719 66.476562 63.789062 66.476562 C 63.503906 66.476562 63.277344 66.410156 63.109375 66.277344 C 62.945312 66.140625 62.859375 65.960938 62.859375 65.742188 C 62.859375 65.527344 62.9375 65.355469 63.089844 65.21875 C 63.242188 65.085938 63.488281 65.019531 63.824219 65.019531 L 64.710938 65.019531 L 64.710938 64.8125 C 64.710938 64.570312 64.644531 64.390625 64.515625 64.265625 C 64.382812 64.140625 64.195312 64.078125 63.945312 64.078125 C 63.773438 64.078125 63.609375 64.105469 63.453125 64.164062 C 63.296875 64.222656 63.164062 64.304688 63.054688 64.402344 L 62.929688 64.222656 C 63.058594 64.109375 63.214844 64.019531 63.394531 63.957031 C 63.574219 63.890625 63.765625 63.859375 63.964844 63.859375 Z M 63.824219 66.277344 C 64.039062 66.277344 64.222656 66.226562 64.371094 66.128906 C 64.519531 66.027344 64.632812 65.886719 64.710938 65.695312 L 64.710938 65.210938 L 63.828125 65.210938 C 63.574219 65.210938 63.390625 65.257812 63.277344 65.351562 C 63.164062 65.445312 63.109375 65.570312 63.109375 65.730469 C 63.109375 65.898438 63.171875 66.03125 63.296875 66.128906 C 63.421875 66.226562 63.597656 66.277344 63.824219 66.277344 Z M 67.683594 64.101562 L 66.675781 64.101562 L 66.675781 66.457031 L 66.429688 66.457031 L 66.429688 64.101562 L 65.421875 64.101562 L 65.421875 63.878906 L 67.683594 63.878906 Z M 68.214844 63.878906 L 68.460938 63.878906 L 68.460938 66.078125 L 70.296875 63.878906 L 70.515625 63.878906 L 70.515625 66.457031 L 70.269531 66.457031 L 70.269531 64.257812 L 68.429688 66.457031 L 68.214844 66.457031 Z M 73.4375 63.878906 L 73.4375 66.457031 L 73.1875 66.457031 L 73.1875 65.347656 C 72.882812 65.488281 72.578125 65.558594 72.269531 65.558594 C 71.96875 65.558594 71.730469 65.488281 71.554688 65.351562 C 71.382812 65.210938 71.296875 65.007812 71.296875 64.738281 L 71.296875 63.878906 L 71.542969 63.878906 L 71.542969 64.722656 C 71.542969 64.925781 71.609375 65.078125 71.746094 65.1875 C 71.882812 65.296875 72.066406 65.351562 72.304688 65.351562 C 72.574219 65.351562 72.871094 65.285156 73.1875 65.148438 L 73.1875 63.878906 Z M 76.703125 65.226562 L 74.484375 65.226562 C 74.492188 65.429688 74.542969 65.605469 74.636719 65.765625 C 74.734375 65.921875 74.863281 66.042969 75.023438 66.128906 C 75.1875 66.210938 75.371094 66.253906 75.574219 66.253906 C 75.742188 66.253906 75.898438 66.226562 76.042969 66.164062 C 76.1875 66.101562 76.304688 66.011719 76.402344 65.894531 L 76.542969 66.058594 C 76.433594 66.191406 76.292969 66.296875 76.121094 66.371094 C 75.953125 66.441406 75.769531 66.476562 75.570312 66.476562 C 75.3125 66.476562 75.085938 66.421875 74.882812 66.308594 C 74.683594 66.199219 74.527344 66.042969 74.414062 65.84375 C 74.296875 65.648438 74.242188 65.421875 74.242188 65.167969 C 74.242188 64.917969 74.296875 64.691406 74.402344 64.492188 C 74.507812 64.292969 74.65625 64.140625 74.84375 64.027344 C 75.03125 63.914062 75.242188 63.859375 75.476562 63.859375 C 75.710938 63.859375 75.921875 63.914062 76.105469 64.023438 C 76.292969 64.132812 76.441406 64.289062 76.546875 64.488281 C 76.652344 64.683594 76.707031 64.90625 76.707031 65.160156 Z M 75.476562 64.078125 C 75.296875 64.078125 75.132812 64.117188 74.988281 64.199219 C 74.84375 64.277344 74.726562 64.390625 74.640625 64.539062 C 74.550781 64.683594 74.5 64.851562 74.488281 65.035156 L 76.464844 65.035156 C 76.457031 64.851562 76.40625 64.6875 76.316406 64.539062 C 76.226562 64.394531 76.113281 64.28125 75.964844 64.199219 C 75.820312 64.117188 75.660156 64.078125 75.476562 64.078125 Z M 78.554688 66.476562 C 78.304688 66.476562 78.082031 66.421875 77.882812 66.308594 C 77.6875 66.199219 77.53125 66.042969 77.417969 65.84375 C 77.308594 65.644531 77.25 65.417969 77.25 65.167969 C 77.25 64.914062 77.308594 64.6875 77.417969 64.488281 C 77.53125 64.289062 77.6875 64.132812 77.882812 64.023438 C 78.082031 63.914062 78.304688 63.859375 78.554688 63.859375 C 78.761719 63.859375 78.953125 63.898438 79.121094 63.980469 C 79.292969 64.0625 79.429688 64.179688 79.535156 64.332031 L 79.351562 64.464844 C 79.257812 64.339844 79.144531 64.242188 79.007812 64.175781 C 78.871094 64.113281 78.71875 64.082031 78.554688 64.082031 C 78.355469 64.082031 78.175781 64.125 78.015625 64.21875 C 77.855469 64.308594 77.730469 64.433594 77.640625 64.601562 C 77.546875 64.765625 77.503906 64.953125 77.503906 65.167969 C 77.503906 65.382812 77.546875 65.570312 77.640625 65.738281 C 77.730469 65.902344 77.855469 66.027344 78.015625 66.121094 C 78.175781 66.210938 78.355469 66.253906 78.554688 66.253906 C 78.71875 66.253906 78.871094 66.222656 79.007812 66.160156 C 79.144531 66.09375 79.257812 66 79.351562 65.871094 L 79.535156 66.003906 C 79.429688 66.160156 79.292969 66.277344 79.121094 66.355469 C 78.953125 66.4375 78.761719 66.476562 78.554688 66.476562 Z M 81.140625 65.261719 L 80.511719 65.261719 L 80.511719 66.457031 L 80.265625 66.457031 L 80.265625 63.878906 L 80.511719 63.878906 L 80.511719 65.050781 L 81.140625 65.050781 L 82.113281 63.878906 L 82.386719 63.878906 L 81.339844 65.128906 L 82.464844 66.457031 L 82.167969 66.457031 Z M 83.074219 63.878906 L 83.320312 63.878906 L 83.320312 66.078125 L 85.15625 63.878906 L 85.375 63.878906 L 85.375 66.457031 L 85.128906 66.457031 L 85.128906 64.257812 L 83.289062 66.457031 L 83.074219 66.457031 Z M 88.640625 65.226562 L 86.421875 65.226562 C 86.429688 65.429688 86.480469 65.605469 86.578125 65.765625 C 86.671875 65.921875 86.800781 66.042969 86.964844 66.128906 C 87.128906 66.210938 87.3125 66.253906 87.515625 66.253906 C 87.683594 66.253906 87.839844 66.226562 87.980469 66.164062 C 88.125 66.101562 88.246094 66.011719 88.339844 65.894531 L 88.484375 66.058594 C 88.371094 66.191406 88.230469 66.296875 88.0625 66.371094 C 87.890625 66.441406 87.707031 66.476562 87.511719 66.476562 C 87.253906 66.476562 87.023438 66.421875 86.824219 66.308594 C 86.621094 66.199219 86.464844 66.042969 86.351562 65.84375 C 86.238281 65.648438 86.179688 65.421875 86.179688 65.167969 C 86.179688 64.917969 86.234375 64.691406 86.339844 64.492188 C 86.449219 64.292969 86.597656 64.140625 86.785156 64.027344 C 86.972656 63.914062 87.183594 63.859375 87.417969 63.859375 C 87.652344 63.859375 87.859375 63.914062 88.046875 64.023438 C 88.234375 64.132812 88.378906 64.289062 88.484375 64.488281 C 88.59375 64.683594 88.648438 64.90625 88.648438 65.160156 Z M 87.417969 64.078125 C 87.234375 64.078125 87.070312 64.117188 86.925781 64.199219 C 86.78125 64.277344 86.667969 64.390625 86.578125 64.539062 C 86.492188 64.683594 86.441406 64.851562 86.429688 65.035156 L 88.40625 65.035156 C 88.394531 64.851562 88.34375 64.6875 88.257812 64.539062 C 88.167969 64.394531 88.050781 64.28125 87.90625 64.199219 C 87.761719 64.117188 87.597656 64.078125 87.417969 64.078125 Z M 93.53125 63.878906 L 93.53125 66.457031 L 93.300781 66.457031 L 93.300781 64.273438 L 92.179688 66.128906 L 92.066406 66.128906 L 90.949219 64.277344 L 90.949219 66.457031 L 90.722656 66.457031 L 90.722656 63.878906 L 90.964844 63.878906 L 92.128906 65.832031 L 93.300781 63.878906 Z M 95.453125 63.859375 C 95.769531 63.859375 96.015625 63.941406 96.1875 64.101562 C 96.359375 64.265625 96.445312 64.507812 96.445312 64.824219 L 96.445312 66.457031 L 96.207031 66.457031 L 96.207031 66 C 96.125 66.148438 96.003906 66.269531 95.847656 66.351562 C 95.6875 66.4375 95.5 66.476562 95.277344 66.476562 C 94.992188 66.476562 94.765625 66.410156 94.597656 66.277344 C 94.433594 66.140625 94.347656 65.960938 94.347656 65.742188 C 94.347656 65.527344 94.425781 65.355469 94.578125 65.21875 C 94.734375 65.085938 94.976562 65.019531 95.3125 65.019531 L 96.199219 65.019531 L 96.199219 64.8125 C 96.199219 64.570312 96.132812 64.390625 96.003906 64.265625 C 95.871094 64.140625 95.683594 64.078125 95.433594 64.078125 C 95.261719 64.078125 95.097656 64.105469 94.941406 64.164062 C 94.785156 64.222656 94.652344 64.304688 94.542969 64.402344 L 94.417969 64.222656 C 94.546875 64.109375 94.703125 64.019531 94.882812 63.957031 C 95.0625 63.890625 95.253906 63.859375 95.453125 63.859375 Z M 95.3125 66.277344 C 95.527344 66.277344 95.710938 66.226562 95.859375 66.128906 C 96.007812 66.027344 96.121094 65.886719 96.199219 65.695312 L 96.199219 65.210938 L 95.316406 65.210938 C 95.0625 65.210938 94.882812 65.257812 94.765625 65.351562 C 94.652344 65.445312 94.597656 65.570312 94.597656 65.730469 C 94.597656 65.898438 94.660156 66.03125 94.785156 66.128906 C 94.910156 66.226562 95.085938 66.277344 95.3125 66.277344 Z M 98.492188 66.476562 C 98.242188 66.476562 98.015625 66.421875 97.820312 66.308594 C 97.621094 66.199219 97.464844 66.042969 97.355469 65.84375 C 97.242188 65.644531 97.1875 65.417969 97.1875 65.167969 C 97.1875 64.914062 97.242188 64.6875 97.355469 64.488281 C 97.464844 64.289062 97.621094 64.132812 97.820312 64.023438 C 98.015625 63.914062 98.242188 63.859375 98.492188 63.859375 C 98.699219 63.859375 98.886719 63.898438 99.054688 63.980469 C 99.226562 64.0625 99.363281 64.179688 99.46875 64.332031 L 99.285156 64.464844 C 99.195312 64.339844 99.078125 64.242188 98.941406 64.175781 C 98.804688 64.113281 98.65625 64.082031 98.492188 64.082031 C 98.289062 64.082031 98.109375 64.125 97.949219 64.21875 C 97.789062 64.308594 97.664062 64.433594 97.574219 64.601562 C 97.484375 64.765625 97.4375 64.953125 97.4375 65.167969 C 97.4375 65.382812 97.484375 65.570312 97.574219 65.738281 C 97.664062 65.902344 97.789062 66.027344 97.949219 66.121094 C 98.109375 66.210938 98.289062 66.253906 98.492188 66.253906 C 98.65625 66.253906 98.804688 66.222656 98.941406 66.160156 C 99.078125 66.09375 99.195312 66 99.285156 65.871094 L 99.46875 66.003906 C 99.363281 66.160156 99.226562 66.277344 99.054688 66.355469 C 98.886719 66.4375 98.699219 66.476562 98.492188 66.476562 Z M 102.113281 63.878906 L 102.113281 66.457031 L 101.867188 66.457031 L 101.867188 64.101562 L 100.523438 64.101562 L 100.488281 64.789062 C 100.46875 65.144531 100.4375 65.441406 100.398438 65.683594 C 100.359375 65.921875 100.292969 66.117188 100.195312 66.265625 C 100.101562 66.414062 99.96875 66.488281 99.800781 66.488281 C 99.75 66.488281 99.679688 66.476562 99.589844 66.453125 L 99.613281 66.242188 C 99.664062 66.253906 99.703125 66.261719 99.730469 66.261719 C 99.871094 66.261719 99.976562 66.191406 100.046875 66.058594 C 100.121094 65.921875 100.167969 65.753906 100.195312 65.554688 C 100.222656 65.351562 100.242188 65.089844 100.261719 64.769531 L 100.304688 63.878906 Z M 104.035156 63.859375 C 104.355469 63.859375 104.601562 63.941406 104.773438 64.101562 C 104.941406 64.265625 105.027344 64.507812 105.027344 64.824219 L 105.027344 66.457031 L 104.792969 66.457031 L 104.792969 66 C 104.710938 66.148438 104.589844 66.269531 104.429688 66.351562 C 104.273438 66.4375 104.082031 66.476562 103.863281 66.476562 C 103.574219 66.476562 103.347656 66.410156 103.183594 66.277344 C 103.015625 66.140625 102.933594 65.960938 102.933594 65.742188 C 102.933594 65.527344 103.011719 65.355469 103.164062 65.21875 C 103.316406 65.085938 103.5625 65.019531 103.898438 65.019531 L 104.78125 65.019531 L 104.78125 64.8125 C 104.78125 64.570312 104.714844 64.390625 104.585938 64.265625 C 104.457031 64.140625 104.265625 64.078125 104.015625 64.078125 C 103.84375 64.078125 103.679688 64.105469 103.523438 64.164062 C 103.367188 64.222656 103.234375 64.304688 103.125 64.402344 L 103.003906 64.222656 C 103.132812 64.109375 103.285156 64.019531 103.46875 63.957031 C 103.648438 63.890625 103.835938 63.859375 104.035156 63.859375 Z M 103.898438 66.277344 C 104.109375 66.277344 104.292969 66.226562 104.441406 66.128906 C 104.59375 66.027344 104.707031 65.886719 104.78125 65.695312 L 104.78125 65.210938 L 103.902344 65.210938 C 103.648438 65.210938 103.464844 65.257812 103.351562 65.351562 C 103.238281 65.445312 103.179688 65.570312 103.179688 65.730469 C 103.179688 65.898438 103.242188 66.03125 103.367188 66.128906 C 103.492188 66.226562 103.667969 66.277344 103.898438 66.277344 "/>
<path style=" stroke:none;fill-rule:nonzero;fill:rgb(10.195923%,10.195923%,9.411621%);fill-opacity:1;" d="M 31.695312 32.8125 C 31.695312 32.921875 31.636719 33.027344 31.519531 33.125 C 31.402344 33.222656 31.296875 33.273438 31.207031 33.273438 C 31.019531 33.273438 30.917969 33.171875 30.898438 32.976562 C 30.898438 32.839844 30.953125 32.730469 31.0625 32.652344 C 31.167969 32.570312 31.273438 32.53125 31.371094 32.53125 C 31.589844 32.53125 31.695312 32.625 31.695312 32.8125 Z M 34.90625 32.8125 C 34.90625 32.921875 34.847656 33.027344 34.730469 33.125 C 34.613281 33.222656 34.507812 33.273438 34.417969 33.273438 C 34.230469 33.273438 34.128906 33.171875 34.109375 32.976562 C 34.109375 32.839844 34.164062 32.730469 34.269531 32.652344 C 34.378906 32.570312 34.484375 32.53125 34.582031 32.53125 C 34.800781 32.53125 34.90625 32.625 34.90625 32.8125 Z M 38.117188 32.8125 C 38.117188 32.921875 38.058594 33.027344 37.941406 33.125 C 37.824219 33.222656 37.71875 33.273438 37.628906 33.273438 C 37.441406 33.273438 37.339844 33.171875 37.320312 32.976562 C 37.320312 32.839844 37.375 32.730469 37.480469 32.652344 C 37.589844 32.570312 37.695312 32.53125 37.792969 32.53125 C 38.011719 32.53125 38.117188 32.625 38.117188 32.8125 Z M 46.40625 22.738281 C 46.40625 23.734375 45.925781 24.964844 44.96875 26.4375 C 44.230469 27.582031 43.3125 28.707031 42.21875 29.808594 C 41.25 30.796875 40.660156 31.289062 40.441406 31.289062 C 40.472656 32.21875 40.761719 32.679688 41.316406 32.679688 C 41.738281 32.679688 42.199219 32.496094 42.691406 32.132812 C 42.59375 31.957031 42.542969 31.761719 42.542969 31.554688 C 42.542969 30.886719 42.761719 30.550781 43.195312 30.550781 C 43.371094 30.550781 43.476562 30.671875 43.503906 30.917969 C 43.503906 31.265625 43.355469 31.609375 43.058594 31.957031 C 43.226562 32.230469 43.488281 32.371094 43.84375 32.371094 C 44.230469 32.371094 44.605469 32.210938 44.96875 31.894531 C 45 31.867188 45.027344 31.851562 45.058594 31.851562 C 45.089844 31.851562 45.101562 31.871094 45.101562 31.910156 C 45.101562 31.949219 45.054688 32.011719 44.953125 32.089844 C 44.519531 32.453125 44.082031 32.636719 43.636719 32.636719 C 43.273438 32.636719 42.980469 32.511719 42.765625 32.265625 C 42.183594 32.800781 41.617188 33.066406 41.0625 33.066406 C 40.738281 33.066406 40.46875 32.929688 40.257812 32.65625 C 40.042969 32.386719 39.9375 32.058594 39.9375 31.675781 C 39.9375 30.578125 40.324219 29.253906 41.09375 27.695312 C 41.792969 26.273438 42.625 25.011719 43.59375 23.914062 C 44.558594 22.8125 45.339844 22.265625 45.929688 22.265625 C 46.246094 22.265625 46.40625 22.421875 46.40625 22.738281 Z M 45.976562 22.960938 C 45.976562 22.730469 45.886719 22.617188 45.710938 22.617188 C 45.246094 22.617188 44.578125 23.175781 43.710938 24.289062 C 42.894531 25.335938 42.15625 26.515625 41.507812 27.828125 C 40.816406 29.207031 40.472656 30.25 40.472656 30.949219 C 40.472656 30.988281 40.480469 31.007812 40.5 31.007812 C 40.6875 31.007812 41.230469 30.523438 42.128906 29.558594 C 43.125 28.492188 43.96875 27.417969 44.660156 26.332031 C 45.535156 24.953125 45.976562 23.828125 45.976562 22.960938 Z M 43.355469 31.007812 C 43.355469 30.910156 43.320312 30.859375 43.253906 30.859375 C 43.046875 30.859375 42.941406 31.0625 42.941406 31.46875 C 42.941406 31.605469 42.960938 31.730469 43 31.835938 C 43.238281 31.570312 43.355469 31.292969 43.355469 31.007812 Z M 49.421875 31.910156 C 49.421875 32.050781 49.066406 32.304688 48.359375 32.679688 C 47.648438 33.054688 46.785156 33.242188 45.769531 33.242188 C 45.1875 33.242188 44.871094 33.183594 44.820312 33.066406 C 44.820312 32.996094 44.875 32.960938 44.984375 32.960938 C 45.132812 32.992188 45.226562 33.007812 45.265625 33.007812 C 45.769531 33.007812 46.304688 32.75 46.878906 32.238281 C 47.421875 31.753906 47.691406 31.339844 47.691406 30.992188 C 47.691406 30.84375 47.597656 30.773438 47.410156 30.773438 C 46.484375 30.773438 45.472656 31.648438 44.378906 33.40625 C 44.289062 33.542969 43.75 34.589844 42.757812 36.550781 C 41.765625 38.507812 41.242188 39.554688 41.179688 39.695312 C 41.113281 39.863281 41.023438 39.945312 40.914062 39.945312 C 40.875 39.945312 40.847656 39.941406 40.828125 39.929688 C 40.765625 39.910156 40.738281 39.851562 40.738281 39.753906 C 40.738281 39.398438 42.957031 35.253906 47.394531 27.324219 C 47.476562 27.1875 47.550781 27.117188 47.617188 27.117188 C 47.628906 27.117188 47.648438 27.128906 47.675781 27.148438 C 47.707031 27.167969 47.722656 27.207031 47.722656 27.265625 C 47.722656 27.375 47.691406 27.457031 47.632812 27.515625 C 47.621094 27.546875 47.21875 28.277344 46.417969 29.707031 C 45.660156 31.085938 45.28125 31.824219 45.28125 31.910156 C 45.28125 31.921875 45.285156 31.929688 45.292969 31.941406 C 45.304688 31.921875 45.339844 31.882812 45.398438 31.824219 C 45.636719 31.535156 45.960938 31.246094 46.375 30.949219 C 46.925781 30.574219 47.410156 30.386719 47.824219 30.386719 C 48.132812 30.386719 48.285156 30.503906 48.285156 30.742188 C 48.285156 31.460938 47.707031 32.167969 46.550781 32.859375 C 47.429688 32.859375 48.34375 32.539062 49.289062 31.894531 C 49.320312 31.867188 49.347656 31.851562 49.378906 31.851562 C 49.40625 31.851562 49.421875 31.871094 49.421875 31.910156 Z M 52.929688 31.910156 C 52.929688 31.980469 52.726562 32.144531 52.324219 32.398438 C 51.328125 33.03125 50.613281 33.347656 50.179688 33.347656 C 49.535156 33.347656 49.214844 32.972656 49.214844 32.222656 C 49.214844 31.667969 49.484375 31.113281 50.023438 30.558594 C 50.558594 30 51.070312 29.722656 51.554688 29.722656 C 51.703125 29.722656 51.777344 29.789062 51.777344 29.929688 C 51.777344 30.265625 51.484375 30.738281 50.902344 31.347656 C 50.4375 31.832031 50.058594 32.164062 49.761719 32.339844 C 49.792969 32.773438 50 32.992188 50.386719 32.992188 C 50.75 32.992188 51.363281 32.746094 52.21875 32.25 C 52.289062 32.210938 52.480469 32.09375 52.796875 31.894531 C 52.828125 31.867188 52.855469 31.851562 52.886719 31.851562 C 52.914062 31.851562 52.929688 31.871094 52.929688 31.910156 Z M 51.316406 30.210938 C 51.316406 30.089844 51.28125 30.03125 51.214844 30.03125 C 50.96875 30.03125 50.664062 30.277344 50.3125 30.773438 C 49.957031 31.265625 49.773438 31.707031 49.761719 32.101562 C 49.949219 32.042969 50.246094 31.789062 50.652344 31.335938 C 51.09375 30.839844 51.316406 30.464844 51.316406 30.210938 Z M 56.777344 31.570312 C 56.894531 31.433594 57.046875 31.253906 57.226562 31.039062 C 57.410156 30.820312 57.582031 30.613281 57.738281 30.417969 C 57.828125 30.359375 57.917969 30.34375 58.003906 30.371094 C 58.09375 30.402344 58.117188 30.441406 58.078125 30.492188 C 57.78125 30.933594 57.566406 31.328125 57.429688 31.675781 C 57.289062 32.019531 57.21875 32.261719 57.21875 32.398438 C 57.21875 32.644531 57.335938 32.769531 57.5625 32.769531 C 57.90625 32.769531 58.53125 32.457031 59.441406 31.835938 C 59.460938 31.816406 59.507812 31.78125 59.582031 31.734375 C 59.65625 31.683594 59.707031 31.660156 59.734375 31.660156 C 59.765625 31.660156 59.78125 31.679688 59.78125 31.71875 C 59.78125 31.777344 59.707031 31.855469 59.558594 31.957031 C 58.335938 32.773438 57.515625 33.183594 57.101562 33.183594 C 56.824219 33.183594 56.6875 33.027344 56.6875 32.710938 C 56.6875 32.613281 56.699219 32.503906 56.726562 32.390625 C 56.75 32.277344 56.78125 32.175781 56.8125 32.089844 C 56.847656 32 56.878906 31.925781 56.902344 31.867188 C 56.925781 31.808594 56.941406 31.78125 56.941406 31.792969 C 56.941406 31.753906 56.925781 31.734375 56.894531 31.734375 C 56.824219 31.8125 56.71875 31.925781 56.570312 32.074219 C 56.421875 32.222656 56.265625 32.371094 56.097656 32.519531 C 55.929688 32.664062 55.761719 32.792969 55.59375 32.894531 C 55.425781 33 55.292969 33.046875 55.195312 33.035156 C 55.074219 33.027344 55 32.984375 54.972656 32.910156 C 54.941406 32.835938 54.941406 32.746094 54.972656 32.636719 C 55 32.527344 55.050781 32.410156 55.121094 32.28125 C 55.1875 32.152344 55.261719 32.03125 55.339844 31.910156 C 55.363281 31.882812 55.394531 31.824219 55.445312 31.742188 C 55.496094 31.65625 55.542969 31.574219 55.585938 31.496094 C 55.628906 31.417969 55.664062 31.355469 55.683594 31.304688 C 55.703125 31.253906 55.691406 31.246094 55.652344 31.273438 C 55.644531 31.253906 55.605469 31.28125 55.542969 31.355469 C 55.476562 31.429688 55.390625 31.527344 55.28125 31.644531 C 55.175781 31.761719 55.046875 31.890625 54.90625 32.023438 C 54.761719 32.15625 54.601562 32.277344 54.425781 32.382812 C 54.296875 32.464844 54.164062 32.542969 54.023438 32.628906 C 53.886719 32.710938 53.75 32.785156 53.617188 32.851562 C 53.484375 32.914062 53.351562 32.964844 53.21875 33.007812 C 53.085938 33.046875 52.953125 33.058594 52.828125 33.050781 C 52.6875 33.039062 52.5625 33.007812 52.449219 32.953125 C 52.335938 32.898438 52.277344 32.777344 52.277344 32.59375 C 52.277344 32.484375 52.304688 32.390625 52.359375 32.3125 C 52.414062 32.230469 52.472656 32.191406 52.53125 32.191406 C 52.578125 32.191406 52.621094 32.21875 52.648438 32.265625 C 52.679688 32.316406 52.710938 32.371094 52.753906 32.4375 C 52.792969 32.5 52.835938 32.558594 52.886719 32.605469 C 52.933594 32.65625 53.003906 32.679688 53.09375 32.679688 L 53.179688 32.679688 C 53.261719 32.679688 53.453125 32.613281 53.757812 32.472656 C 54.300781 32.21875 54.757812 31.902344 55.128906 31.527344 C 55.496094 31.152344 55.828125 30.773438 56.125 30.386719 C 56.273438 30.238281 56.382812 30.164062 56.453125 30.164062 C 56.480469 30.164062 56.519531 30.175781 56.5625 30.203125 C 56.605469 30.226562 56.636719 30.269531 56.652344 30.328125 C 56.664062 30.386719 56.652344 30.46875 56.605469 30.570312 C 56.5625 30.675781 56.476562 30.804688 56.347656 30.964844 C 56.269531 31.042969 56.179688 31.160156 56.074219 31.320312 C 55.96875 31.476562 55.867188 31.644531 55.761719 31.824219 C 55.660156 32 55.566406 32.167969 55.480469 32.324219 C 55.398438 32.484375 55.339844 32.597656 55.3125 32.664062 C 55.320312 32.746094 55.390625 32.75 55.511719 32.679688 C 55.636719 32.613281 55.777344 32.511719 55.941406 32.382812 C 56.105469 32.257812 56.265625 32.117188 56.421875 31.964844 C 56.578125 31.808594 56.699219 31.679688 56.777344 31.570312 Z M 62.695312 31.453125 C 62.84375 31.304688 62.953125 31.230469 63.019531 31.230469 C 63.148438 31.230469 63.214844 31.292969 63.214844 31.421875 C 63.214844 31.5 63.179688 31.589844 63.109375 31.6875 C 62.992188 31.867188 62.894531 32.023438 62.8125 32.15625 C 62.734375 32.289062 62.6875 32.398438 62.664062 32.488281 C 62.644531 32.578125 62.664062 32.644531 62.726562 32.695312 C 62.785156 32.746094 62.898438 32.769531 63.066406 32.769531 C 63.410156 32.769531 64.035156 32.457031 64.945312 31.835938 C 64.964844 31.816406 65.011719 31.78125 65.085938 31.734375 C 65.160156 31.683594 65.210938 31.660156 65.242188 31.660156 C 65.269531 31.660156 65.285156 31.679688 65.285156 31.71875 C 65.285156 31.777344 65.210938 31.855469 65.0625 31.957031 C 63.839844 32.773438 63.019531 33.183594 62.605469 33.183594 C 62.332031 33.183594 62.191406 33.027344 62.191406 32.710938 C 62.191406 32.570312 62.210938 32.4375 62.25 32.3125 C 62.292969 32.183594 62.332031 32.078125 62.371094 32 C 62.300781 32 62.234375 31.996094 62.171875 31.984375 C 62.105469 31.976562 62.039062 31.964844 61.96875 31.957031 C 61.792969 32.082031 61.589844 32.214844 61.363281 32.347656 C 61.136719 32.480469 60.910156 32.601562 60.683594 32.710938 C 60.457031 32.820312 60.242188 32.90625 60.039062 32.96875 C 59.835938 33.03125 59.671875 33.058594 59.542969 33.050781 C 59.40625 33.039062 59.28125 33.007812 59.167969 32.953125 C 59.054688 32.898438 58.996094 32.777344 58.996094 32.59375 C 58.996094 32.484375 59.023438 32.390625 59.078125 32.3125 C 59.132812 32.230469 59.1875 32.191406 59.25 32.191406 C 59.296875 32.191406 59.335938 32.21875 59.367188 32.265625 C 59.394531 32.316406 59.429688 32.371094 59.46875 32.4375 C 59.507812 32.5 59.554688 32.558594 59.601562 32.605469 C 59.652344 32.65625 59.722656 32.679688 59.808594 32.679688 L 59.898438 32.679688 C 59.929688 32.679688 59.988281 32.664062 60.085938 32.636719 C 60.175781 32.605469 60.308594 32.550781 60.476562 32.472656 C 60.722656 32.355469 60.945312 32.253906 61.140625 32.171875 C 61.339844 32.085938 61.523438 31.988281 61.6875 31.882812 C 61.5 31.84375 61.324219 31.777344 61.15625 31.6875 C 60.917969 31.570312 60.816406 31.355469 60.847656 31.039062 C 60.867188 30.820312 60.953125 30.644531 61.113281 30.503906 C 61.269531 30.367188 61.449219 30.269531 61.652344 30.210938 C 61.855469 30.152344 62.054688 30.132812 62.257812 30.15625 C 62.460938 30.183594 62.617188 30.25 62.726562 30.363281 C 62.832031 30.476562 62.875 30.632812 62.851562 30.832031 C 62.828125 31.027344 62.6875 31.273438 62.429688 31.570312 C 62.398438 31.601562 62.367188 31.632812 62.332031 31.667969 C 62.296875 31.703125 62.257812 31.734375 62.207031 31.761719 L 62.457031 31.835938 C 62.46875 31.816406 62.488281 31.785156 62.519531 31.742188 C 62.546875 31.695312 62.578125 31.652344 62.605469 31.609375 C 62.636719 31.5625 62.660156 31.527344 62.679688 31.496094 C 62.699219 31.46875 62.707031 31.453125 62.695312 31.453125 Z M 62.414062 31.171875 C 62.445312 31.121094 62.472656 31.078125 62.496094 31.039062 C 62.519531 31 62.542969 30.953125 62.5625 30.90625 C 62.59375 30.824219 62.609375 30.742188 62.613281 30.652344 C 62.617188 30.566406 62.585938 30.480469 62.519531 30.402344 C 62.429688 30.304688 62.285156 30.28125 62.082031 30.335938 C 61.878906 30.390625 61.699219 30.484375 61.542969 30.625 C 61.382812 30.761719 61.28125 30.921875 61.238281 31.105469 C 61.195312 31.289062 61.28125 31.449219 61.496094 31.585938 L 61.941406 31.703125 C 62.019531 31.636719 62.097656 31.554688 62.175781 31.46875 C 62.257812 31.378906 62.335938 31.28125 62.414062 31.171875 Z M 71.988281 31.910156 C 71.988281 32.089844 71.539062 32.433594 70.640625 32.945312 C 70.246094 33.171875 69.851562 33.289062 69.457031 33.289062 C 68.992188 33.289062 68.761719 33.089844 68.761719 32.695312 C 68.761719 32.449219 68.933594 32.132812 69.28125 31.75 C 69.574219 31.421875 69.738281 31.261719 69.769531 31.261719 C 69.589844 31.261719 69.453125 31.15625 69.355469 30.949219 C 69.253906 30.742188 69.179688 30.636719 69.132812 30.636719 C 69.09375 30.636719 69.039062 30.671875 68.96875 30.742188 C 68.832031 30.949219 68.566406 31.210938 68.171875 31.527344 C 67.964844 31.695312 67.671875 31.90625 67.296875 32.164062 C 67.269531 32.191406 67.238281 32.207031 67.207031 32.207031 C 67.1875 32.207031 67.179688 32.152344 67.179688 32.042969 C 67.226562 32.015625 67.40625 31.886719 67.710938 31.660156 C 68.402344 31.148438 68.960938 30.570312 69.382812 29.929688 C 69.460938 29.800781 69.566406 29.734375 69.695312 29.734375 C 69.753906 29.734375 69.78125 29.765625 69.78125 29.824219 C 69.78125 29.863281 69.761719 29.949219 69.722656 30.082031 C 69.683594 30.21875 69.664062 30.3125 69.664062 30.371094 C 69.664062 30.550781 69.761719 30.707031 69.953125 30.84375 C 70.144531 30.984375 70.242188 31.078125 70.242188 31.125 C 70.242188 31.214844 70.089844 31.394531 69.789062 31.667969 C 69.488281 31.9375 69.339844 32.191406 69.339844 32.429688 C 69.339844 32.773438 69.496094 32.945312 69.8125 32.945312 C 70.109375 32.945312 70.5 32.800781 70.980469 32.503906 C 71.265625 32.304688 71.558594 32.101562 71.855469 31.894531 C 71.882812 31.867188 71.914062 31.851562 71.941406 31.851562 C 71.972656 31.851562 71.988281 31.871094 71.988281 31.910156 Z M 76.265625 31.910156 C 76.222656 32.039062 75.890625 32.289062 75.257812 32.664062 C 74.527344 33.101562 73.949219 33.453125 73.527344 33.730469 C 72.195312 36.40625 71.367188 38.007812 71.039062 38.539062 C 70.113281 40.117188 69.335938 40.90625 68.703125 40.90625 C 68.40625 40.90625 68.257812 40.714844 68.257812 40.332031 C 68.257812 38.179688 69.867188 35.988281 73.082031 33.761719 L 74 31.835938 C 74 31.796875 73.984375 31.777344 73.957031 31.777344 C 72.871094 32.605469 72.203125 33.019531 71.957031 33.019531 C 71.722656 33.019531 71.601562 32.902344 71.601562 32.664062 C 71.601562 32.527344 71.753906 32.171875 72.054688 31.601562 C 72.355469 31.027344 72.503906 30.691406 72.503906 30.59375 C 72.503906 30.484375 72.417969 30.429688 72.238281 30.429688 C 72.199219 30.429688 72.179688 30.371094 72.179688 30.253906 C 72.269531 30.222656 72.363281 30.210938 72.460938 30.210938 C 72.804688 30.210938 72.980469 30.308594 72.980469 30.503906 C 72.980469 30.722656 72.847656 31.078125 72.578125 31.570312 C 72.3125 32.0625 72.179688 32.375 72.179688 32.503906 C 72.179688 32.582031 72.214844 32.621094 72.285156 32.621094 C 72.519531 32.621094 72.898438 32.414062 73.421875 32 C 74.015625 31.527344 74.457031 31.019531 74.753906 30.476562 C 74.902344 30.328125 75.011719 30.253906 75.082031 30.253906 C 75.207031 30.253906 75.273438 30.316406 75.273438 30.445312 C 75.273438 30.515625 75.238281 30.605469 75.167969 30.710938 C 74.785156 31.3125 74.300781 32.191406 73.71875 33.347656 C 74.242188 33.019531 74.726562 32.738281 75.167969 32.503906 C 75.660156 32.21875 75.984375 32.015625 76.128906 31.894531 C 76.160156 31.867188 76.191406 31.851562 76.21875 31.851562 C 76.25 31.851562 76.265625 31.871094 76.265625 31.910156 Z M 72.90625 34.160156 C 70.082031 36.171875 68.671875 38.191406 68.671875 40.210938 C 68.671875 40.46875 68.757812 40.597656 68.925781 40.597656 C 69.339844 40.597656 69.949219 39.886719 70.757812 38.464844 C 71.28125 37.539062 71.996094 36.101562 72.90625 34.160156 Z M 82.582031 22.738281 C 82.582031 23.734375 82.101562 24.964844 81.148438 26.4375 C 80.40625 27.582031 79.488281 28.707031 78.394531 29.808594 C 77.429688 30.796875 76.835938 31.289062 76.617188 31.289062 C 76.648438 32.21875 76.9375 32.679688 77.492188 32.679688 C 77.914062 32.679688 78.375 32.496094 78.867188 32.132812 C 78.769531 31.957031 78.71875 31.761719 78.71875 31.554688 C 78.71875 30.886719 78.9375 30.550781 79.371094 30.550781 C 79.546875 30.550781 79.652344 30.671875 79.683594 30.917969 C 79.683594 31.265625 79.535156 31.609375 79.238281 31.957031 C 79.40625 32.230469 79.667969 32.371094 80.023438 32.371094 C 80.40625 32.371094 80.78125 32.210938 81.148438 31.894531 C 81.175781 31.867188 81.207031 31.851562 81.234375 31.851562 C 81.265625 31.851562 81.28125 31.871094 81.28125 31.910156 C 81.28125 31.949219 81.230469 32.011719 81.132812 32.089844 C 80.699219 32.453125 80.257812 32.636719 79.816406 32.636719 C 79.449219 32.636719 79.160156 32.511719 78.941406 32.265625 C 78.359375 32.800781 77.792969 33.066406 77.242188 33.066406 C 76.914062 33.066406 76.644531 32.929688 76.433594 32.65625 C 76.222656 32.386719 76.117188 32.058594 76.117188 31.675781 C 76.117188 30.578125 76.5 29.253906 77.269531 27.695312 C 77.96875 26.273438 78.804688 25.011719 79.769531 23.914062 C 80.738281 22.8125 81.515625 22.265625 82.109375 22.265625 C 82.425781 22.265625 82.582031 22.421875 82.582031 22.738281 Z M 82.152344 22.960938 C 82.152344 22.730469 82.0625 22.617188 81.886719 22.617188 C 81.421875 22.617188 80.757812 23.175781 79.890625 24.289062 C 79.070312 25.335938 78.335938 26.515625 77.683594 27.828125 C 76.992188 29.207031 76.648438 30.25 76.648438 30.949219 C 76.648438 30.988281 76.65625 31.007812 76.679688 31.007812 C 76.867188 31.007812 77.40625 30.523438 78.304688 29.558594 C 79.300781 28.492188 80.144531 27.417969 80.835938 26.332031 C 81.714844 24.953125 82.152344 23.828125 82.152344 22.960938 Z M 79.535156 31.007812 C 79.535156 30.910156 79.5 30.859375 79.429688 30.859375 C 79.222656 30.859375 79.121094 31.0625 79.121094 31.46875 C 79.121094 31.605469 79.140625 31.730469 79.179688 31.835938 C 79.414062 31.570312 79.535156 31.292969 79.535156 31.007812 Z M 84.476562 31.910156 C 84.476562 31.949219 84.402344 32.03125 84.253906 32.148438 C 83.859375 32.402344 83.46875 32.660156 83.085938 32.917969 C 82.523438 33.253906 82.0625 33.421875 81.707031 33.421875 C 81.5 33.421875 81.320312 33.347656 81.160156 33.199219 C 81.003906 33.050781 80.925781 32.882812 80.925781 32.695312 C 80.925781 32.042969 81.242188 31.449219 81.871094 30.90625 C 82.433594 30.421875 82.957031 30.179688 83.441406 30.179688 C 83.746094 30.179688 83.898438 30.304688 83.898438 30.550781 C 83.898438 30.6875 83.695312 30.960938 83.292969 31.363281 C 83.253906 31.402344 83.207031 31.421875 83.160156 31.421875 C 83.082031 31.421875 83.039062 31.378906 83.039062 31.289062 C 83.039062 31.25 83.054688 31.21875 83.085938 31.195312 C 83.113281 31.167969 83.175781 31.058594 83.261719 30.867188 C 83.351562 30.675781 83.394531 30.53125 83.394531 30.429688 C 83.394531 30.402344 83.359375 30.386719 83.292969 30.386719 C 83.046875 30.386719 82.683594 30.589844 82.210938 30.992188 C 81.640625 31.476562 81.355469 31.976562 81.355469 32.488281 C 81.355469 32.863281 81.515625 33.050781 81.84375 33.050781 C 82.34375 33.050781 83.109375 32.710938 84.136719 32.03125 C 84.183594 31.988281 84.253906 31.945312 84.34375 31.894531 C 84.371094 31.867188 84.402344 31.851562 84.429688 31.851562 C 84.460938 31.851562 84.476562 31.871094 84.476562 31.910156 Z M 93.398438 31.910156 C 93.398438 31.96875 93.324219 32.050781 93.175781 32.148438 C 92.476562 32.621094 92.085938 32.882812 92.007812 32.933594 C 91.5625 33.199219 91.195312 33.332031 90.898438 33.332031 C 90.730469 33.332031 90.589844 33.273438 90.476562 33.152344 C 90.363281 33.035156 90.304688 32.894531 90.304688 32.726562 C 90.304688 32.230469 90.621094 31.527344 91.253906 30.609375 C 91.300781 30.539062 91.328125 30.496094 91.328125 30.476562 C 91.328125 30.464844 91.320312 30.460938 91.3125 30.460938 C 91.273438 30.460938 91.203125 30.496094 91.105469 30.566406 C 90.550781 30.980469 89.941406 31.4375 89.269531 31.941406 C 88.984375 32.1875 88.566406 32.53125 88.011719 32.976562 C 87.933594 33.035156 87.824219 33.089844 87.6875 33.140625 C 87.617188 33.140625 87.582031 33.089844 87.582031 32.992188 C 87.582031 32.792969 87.75 32.476562 88.078125 32.035156 C 88.410156 31.597656 88.574219 31.289062 88.574219 31.113281 C 88.574219 30.945312 88.496094 30.859375 88.335938 30.859375 C 88.101562 30.859375 87.628906 31.179688 86.917969 31.824219 C 86.433594 32.257812 86.011719 32.675781 85.644531 33.078125 C 85.507812 33.226562 85.398438 33.300781 85.320312 33.300781 C 85.191406 33.300781 85.128906 33.234375 85.128906 33.09375 C 85.128906 33.054688 85.160156 32.957031 85.230469 32.800781 C 85.46875 32.472656 85.699219 32.148438 85.925781 31.824219 C 86.269531 31.328125 86.445312 30.980469 86.445312 30.773438 C 86.445312 30.683594 86.414062 30.636719 86.355469 30.636719 C 86.324219 30.636719 86.265625 30.660156 86.175781 30.699219 C 85.675781 31.074219 84.960938 31.605469 84.03125 32.296875 L 83.929688 32.296875 C 83.859375 32.296875 83.824219 32.285156 83.824219 32.265625 C 83.824219 32.238281 83.878906 32.1875 83.988281 32.117188 C 84.679688 31.574219 85.441406 30.988281 86.28125 30.359375 C 86.398438 30.257812 86.550781 30.210938 86.738281 30.210938 C 86.9375 30.210938 87.035156 30.296875 87.035156 30.476562 C 87.035156 30.515625 87.027344 30.574219 87.007812 30.652344 C 86.808594 31 86.558594 31.4375 86.25 31.96875 C 86.210938 32.039062 86.191406 32.082031 86.191406 32.101562 C 86.191406 32.113281 86.203125 32.117188 86.222656 32.117188 L 86.265625 32.101562 C 86.632812 31.789062 86.996094 31.472656 87.359375 31.15625 C 87.921875 30.683594 88.328125 30.445312 88.574219 30.445312 C 88.898438 30.445312 89.0625 30.550781 89.0625 30.757812 C 89.0625 30.933594 88.964844 31.203125 88.773438 31.5625 C 88.582031 31.921875 88.484375 32.117188 88.484375 32.148438 C 88.484375 32.175781 88.496094 32.191406 88.515625 32.191406 C 88.554688 32.191406 88.625 32.15625 88.722656 32.089844 L 91.800781 29.765625 C 91.898438 29.6875 92.003906 29.648438 92.109375 29.648438 C 92.179688 29.648438 92.230469 29.660156 92.257812 29.683594 C 92.289062 29.710938 92.304688 29.75 92.304688 29.808594 C 92.304688 29.878906 92.285156 29.9375 92.246094 29.988281 C 91.96875 30.382812 91.6875 30.78125 91.402344 31.1875 C 91.066406 31.699219 90.898438 32.144531 90.898438 32.519531 C 90.898438 32.753906 91.027344 32.867188 91.28125 32.859375 C 91.589844 32.847656 91.933594 32.726562 92.316406 32.488281 C 92.632812 32.289062 92.949219 32.09375 93.265625 31.894531 C 93.292969 31.867188 93.324219 31.851562 93.355469 31.851562 C 93.382812 31.851562 93.398438 31.871094 93.398438 31.910156 Z M 99.714844 22.738281 C 99.714844 23.734375 99.238281 24.964844 98.28125 26.4375 C 97.539062 27.582031 96.625 28.707031 95.527344 29.808594 C 94.5625 30.796875 93.96875 31.289062 93.753906 31.289062 C 93.78125 32.21875 94.074219 32.679688 94.625 32.679688 C 95.050781 32.679688 95.507812 32.496094 96.003906 32.132812 C 95.902344 31.957031 95.855469 31.761719 95.855469 31.554688 C 95.855469 30.886719 96.070312 30.550781 96.503906 30.550781 C 96.683594 30.550781 96.785156 30.671875 96.816406 30.917969 C 96.816406 31.265625 96.667969 31.609375 96.371094 31.957031 C 96.539062 32.230469 96.800781 32.371094 97.15625 32.371094 C 97.539062 32.371094 97.914062 32.210938 98.28125 31.894531 C 98.3125 31.867188 98.339844 31.851562 98.371094 31.851562 C 98.398438 31.851562 98.414062 31.871094 98.414062 31.910156 C 98.414062 31.949219 98.363281 32.011719 98.265625 32.089844 C 97.832031 32.453125 97.394531 32.636719 96.949219 32.636719 C 96.585938 32.636719 96.292969 32.511719 96.078125 32.265625 C 95.496094 32.800781 94.925781 33.066406 94.375 33.066406 C 94.050781 33.066406 93.78125 32.929688 93.566406 32.65625 C 93.355469 32.386719 93.25 32.058594 93.25 31.675781 C 93.25 30.578125 93.636719 29.253906 94.402344 27.695312 C 95.105469 26.273438 95.9375 25.011719 96.90625 23.914062 C 97.871094 22.8125 98.652344 22.265625 99.242188 22.265625 C 99.558594 22.265625 99.714844 22.421875 99.714844 22.738281 Z M 99.285156 22.960938 C 99.285156 22.730469 99.199219 22.617188 99.019531 22.617188 C 98.558594 22.617188 97.890625 23.175781 97.023438 24.289062 C 96.203125 25.335938 95.46875 26.515625 94.820312 27.828125 C 94.128906 29.207031 93.78125 30.25 93.78125 30.949219 C 93.78125 30.988281 93.792969 31.007812 93.8125 31.007812 C 94 31.007812 94.542969 30.523438 95.441406 29.558594 C 96.4375 28.492188 97.28125 27.417969 97.96875 26.332031 C 98.847656 24.953125 99.285156 23.828125 99.285156 22.960938 Z M 96.667969 31.007812 C 96.667969 30.910156 96.632812 30.859375 96.566406 30.859375 C 96.359375 30.859375 96.253906 31.0625 96.253906 31.46875 C 96.253906 31.605469 96.273438 31.730469 96.3125 31.835938 C 96.550781 31.570312 96.667969 31.292969 96.667969 31.007812 Z M 102.4375 31.910156 C 102.4375 31.949219 102.390625 32.011719 102.289062 32.089844 C 101.855469 32.453125 101.417969 32.636719 100.972656 32.636719 C 100.699219 32.636719 100.460938 32.5625 100.265625 32.414062 C 99.808594 33.007812 99.316406 33.300781 98.785156 33.300781 C 98.390625 33.300781 98.191406 33.054688 98.191406 32.5625 C 98.191406 31.921875 98.507812 31.273438 99.140625 30.625 C 99.671875 30.082031 100.0625 29.808594 100.308594 29.808594 C 100.464844 29.808594 100.542969 29.859375 100.542969 29.957031 C 100.542969 29.988281 100.515625 30.027344 100.457031 30.078125 C 100.21875 30.125 99.898438 30.378906 99.496094 30.832031 C 99 31.382812 98.753906 31.917969 98.753906 32.429688 C 98.753906 32.765625 98.871094 32.933594 99.109375 32.933594 C 99.453125 32.933594 99.804688 32.730469 100.160156 32.324219 C 99.972656 32.117188 99.878906 31.863281 99.878906 31.554688 C 99.878906 31.199219 99.96875 30.894531 100.144531 30.636719 C 100.304688 30.421875 100.472656 30.3125 100.648438 30.3125 C 100.824219 30.3125 100.929688 30.4375 100.960938 30.683594 C 100.960938 31.117188 100.804688 31.585938 100.5 32.089844 C 100.667969 32.277344 100.894531 32.371094 101.179688 32.371094 C 101.566406 32.371094 101.941406 32.210938 102.304688 31.894531 C 102.335938 31.867188 102.363281 31.851562 102.394531 31.851562 C 102.425781 31.851562 102.4375 31.871094 102.4375 31.910156 Z M 100.8125 30.773438 C 100.8125 30.671875 100.777344 30.625 100.707031 30.625 C 100.617188 30.625 100.523438 30.703125 100.425781 30.859375 C 100.328125 31.019531 100.277344 31.21875 100.277344 31.46875 C 100.277344 31.675781 100.324219 31.847656 100.410156 31.984375 C 100.679688 31.570312 100.8125 31.167969 100.8125 30.773438 Z M 108.757812 22.738281 C 108.757812 23.734375 108.277344 24.964844 107.320312 26.4375 C 106.582031 27.582031 105.664062 28.707031 104.570312 29.808594 C 103.601562 30.796875 103.011719 31.289062 102.792969 31.289062 C 102.824219 32.21875 103.113281 32.679688 103.667969 32.679688 C 104.089844 32.679688 104.550781 32.496094 105.042969 32.132812 C 104.945312 31.957031 104.894531 31.761719 104.894531 31.554688 C 104.894531 30.886719 105.113281 30.550781 105.546875 30.550781 C 105.722656 30.550781 105.828125 30.671875 105.855469 30.917969 C 105.855469 31.265625 105.707031 31.609375 105.414062 31.957031 C 105.582031 32.230469 105.84375 32.371094 106.195312 32.371094 C 106.582031 32.371094 106.957031 32.210938 107.320312 31.894531 C 107.351562 31.867188 107.382812 31.851562 107.410156 31.851562 C 107.441406 31.851562 107.453125 31.871094 107.453125 31.910156 C 107.453125 31.949219 107.40625 32.011719 107.308594 32.089844 C 106.871094 32.453125 106.433594 32.636719 105.988281 32.636719 C 105.625 32.636719 105.335938 32.511719 105.117188 32.265625 C 104.535156 32.800781 103.96875 33.066406 103.414062 33.066406 C 103.089844 33.066406 102.820312 32.929688 102.609375 32.65625 C 102.398438 32.386719 102.289062 32.058594 102.289062 31.675781 C 102.289062 30.578125 102.675781 29.253906 103.445312 27.695312 C 104.144531 26.273438 104.980469 25.011719 105.945312 23.914062 C 106.914062 22.8125 107.691406 22.265625 108.285156 22.265625 C 108.597656 22.265625 108.757812 22.421875 108.757812 22.738281 Z M 108.328125 22.960938 C 108.328125 22.730469 108.238281 22.617188 108.0625 22.617188 C 107.597656 22.617188 106.933594 23.175781 106.0625 24.289062 C 105.246094 25.335938 104.511719 26.515625 103.859375 27.828125 C 103.167969 29.207031 102.824219 30.25 102.824219 30.949219 C 102.824219 30.988281 102.832031 31.007812 102.851562 31.007812 C 103.039062 31.007812 103.582031 30.523438 104.480469 29.558594 C 105.476562 28.492188 106.320312 27.417969 107.011719 26.332031 C 107.890625 24.953125 108.328125 23.828125 108.328125 22.960938 Z M 105.707031 31.007812 C 105.707031 30.910156 105.675781 30.859375 105.605469 30.859375 C 105.398438 30.859375 105.292969 31.0625 105.292969 31.46875 C 105.292969 31.605469 105.316406 31.730469 105.355469 31.835938 C 105.589844 31.570312 105.707031 31.292969 105.707031 31.007812 "/>
<path style=" stroke:none;fill-rule:nonzero;fill:rgb(10.195923%,10.195923%,9.411621%);fill-opacity:1;" d="M 112.070312 31.910156 C 112.070312 32.03125 111.765625 32.257812 111.152344 32.59375 C 110.511719 32.945312 110.054688 33.125 109.777344 33.125 C 109.265625 33.125 109.007812 32.851562 109.007812 32.3125 C 109.007812 32.164062 109.085938 31.996094 109.246094 31.808594 C 109.246094 31.796875 109.242188 31.792969 109.230469 31.792969 C 109.242188 31.792969 108.972656 31.996094 108.429688 32.40625 C 107.890625 32.816406 107.5 33.019531 107.261719 33.019531 C 107.035156 33.019531 106.921875 32.925781 106.921875 32.738281 C 106.921875 32.285156 107.300781 31.757812 108.0625 31.15625 C 108.78125 30.574219 109.34375 30.285156 109.75 30.285156 C 109.808594 30.292969 109.875 30.324219 109.949219 30.378906 C 110.023438 30.433594 110.058594 30.476562 110.058594 30.503906 C 110.058594 30.515625 110.054688 30.523438 110.042969 30.535156 C 109.492188 30.535156 108.785156 30.964844 107.929688 31.824219 C 107.652344 32.097656 107.515625 32.332031 107.515625 32.519531 C 107.515625 32.585938 107.546875 32.621094 107.617188 32.621094 C 107.835938 32.621094 108.25 32.371094 108.859375 31.867188 C 109.355469 31.453125 109.703125 31.121094 109.910156 30.875 C 110.011719 30.757812 110.078125 30.699219 110.117188 30.699219 C 110.21875 30.699219 110.265625 30.765625 110.265625 30.90625 C 110.265625 30.953125 110.203125 31.066406 110.074219 31.246094 C 109.648438 31.828125 109.4375 32.199219 109.4375 32.355469 C 109.4375 32.632812 109.589844 32.769531 109.894531 32.769531 C 110.398438 32.769531 111.078125 32.476562 111.9375 31.894531 C 111.96875 31.867188 111.996094 31.851562 112.027344 31.851562 C 112.058594 31.851562 112.070312 31.871094 112.070312 31.910156 Z M 121.007812 31.910156 C 121.007812 31.96875 120.933594 32.050781 120.785156 32.148438 C 120.085938 32.621094 119.695312 32.882812 119.617188 32.933594 C 119.171875 33.199219 118.804688 33.332031 118.507812 33.332031 C 118.339844 33.332031 118.199219 33.273438 118.085938 33.152344 C 117.972656 33.035156 117.914062 32.894531 117.914062 32.726562 C 117.914062 32.230469 118.230469 31.527344 118.863281 30.609375 C 118.914062 30.539062 118.9375 30.496094 118.9375 30.476562 C 118.9375 30.464844 118.933594 30.460938 118.921875 30.460938 C 118.882812 30.460938 118.8125 30.496094 118.714844 30.566406 C 118.164062 30.980469 117.550781 31.4375 116.878906 31.941406 C 116.59375 32.1875 116.175781 32.53125 115.621094 32.976562 C 115.542969 33.035156 115.433594 33.089844 115.296875 33.140625 C 115.226562 33.140625 115.195312 33.089844 115.195312 32.992188 C 115.195312 32.792969 115.359375 32.476562 115.6875 32.035156 C 116.019531 31.597656 116.183594 31.289062 116.183594 31.113281 C 116.183594 30.945312 116.105469 30.859375 115.949219 30.859375 C 115.710938 30.859375 115.238281 31.179688 114.527344 31.824219 C 114.042969 32.257812 113.621094 32.675781 113.253906 33.078125 C 113.117188 33.226562 113.007812 33.300781 112.929688 33.300781 C 112.800781 33.300781 112.738281 33.234375 112.738281 33.09375 C 112.738281 33.054688 112.773438 32.957031 112.839844 32.800781 C 113.078125 32.472656 113.308594 32.148438 113.535156 31.824219 C 113.882812 31.328125 114.054688 30.980469 114.054688 30.773438 C 114.054688 30.683594 114.023438 30.636719 113.964844 30.636719 C 113.9375 30.636719 113.875 30.660156 113.789062 30.699219 C 113.285156 31.074219 112.570312 31.605469 111.640625 32.296875 L 111.539062 32.296875 C 111.46875 32.296875 111.433594 32.285156 111.433594 32.265625 C 111.433594 32.238281 111.488281 32.1875 111.597656 32.117188 C 112.289062 31.574219 113.054688 30.988281 113.890625 30.359375 C 114.007812 30.257812 114.164062 30.210938 114.351562 30.210938 C 114.546875 30.210938 114.644531 30.296875 114.644531 30.476562 C 114.644531 30.515625 114.636719 30.574219 114.617188 30.652344 C 114.417969 31 114.167969 31.4375 113.863281 31.96875 C 113.824219 32.039062 113.800781 32.082031 113.800781 32.101562 C 113.800781 32.113281 113.8125 32.117188 113.832031 32.117188 L 113.875 32.101562 C 114.242188 31.789062 114.605469 31.472656 114.972656 31.15625 C 115.535156 30.683594 115.9375 30.445312 116.183594 30.445312 C 116.511719 30.445312 116.671875 30.550781 116.671875 30.757812 C 116.671875 30.933594 116.578125 31.203125 116.382812 31.5625 C 116.191406 31.921875 116.097656 32.117188 116.097656 32.148438 C 116.097656 32.175781 116.105469 32.191406 116.125 32.191406 C 116.164062 32.191406 116.234375 32.15625 116.332031 32.089844 L 119.410156 29.765625 C 119.507812 29.6875 119.613281 29.648438 119.722656 29.648438 C 119.789062 29.648438 119.839844 29.660156 119.867188 29.683594 C 119.898438 29.710938 119.914062 29.75 119.914062 29.808594 C 119.914062 29.878906 119.894531 29.9375 119.855469 29.988281 C 119.578125 30.382812 119.296875 30.78125 119.011719 31.1875 C 118.675781 31.699219 118.507812 32.144531 118.507812 32.519531 C 118.507812 32.753906 118.636719 32.867188 118.890625 32.859375 C 119.199219 32.847656 119.542969 32.726562 119.929688 32.488281 C 120.242188 32.289062 120.558594 32.09375 120.875 31.894531 C 120.90625 31.867188 120.933594 31.851562 120.964844 31.851562 C 120.992188 31.851562 121.007812 31.871094 121.007812 31.910156 Z M 121.246094 32.445312 C 121.246094 32.710938 121.355469 32.84375 121.570312 32.84375 C 121.726562 32.84375 121.886719 32.800781 122.042969 32.710938 C 122.203125 32.621094 122.355469 32.507812 122.503906 32.371094 C 122.355469 32.222656 122.28125 32.039062 122.28125 31.824219 C 122.28125 31.585938 122.347656 31.382812 122.480469 31.207031 C 122.613281 31.035156 122.765625 30.949219 122.933594 30.949219 C 123.097656 30.949219 123.199219 31.027344 123.226562 31.1875 C 123.226562 31.335938 123.203125 31.496094 123.152344 31.667969 C 123.105469 31.839844 123.015625 32.023438 122.886719 32.222656 C 123.035156 32.371094 123.242188 32.445312 123.507812 32.445312 C 123.835938 32.445312 124.171875 32.3125 124.515625 32.042969 C 124.542969 32.015625 124.570312 32 124.589844 32 C 124.617188 32 124.632812 32.019531 124.632812 32.058594 C 124.632812 32.136719 124.578125 32.210938 124.46875 32.28125 C 124.363281 32.351562 124.238281 32.414062 124.09375 32.472656 C 123.949219 32.53125 123.804688 32.578125 123.65625 32.613281 C 123.507812 32.648438 123.394531 32.664062 123.316406 32.664062 C 123.179688 32.664062 123.070312 32.648438 122.992188 32.613281 C 122.914062 32.578125 122.828125 32.527344 122.738281 32.457031 C 122.53125 32.707031 122.296875 32.898438 122.027344 33.035156 C 121.761719 33.171875 121.507812 33.242188 121.261719 33.242188 C 121.074219 33.242188 120.933594 33.167969 120.847656 33.011719 C 120.757812 32.859375 120.710938 32.683594 120.710938 32.488281 C 120.710938 32.359375 120.769531 32.152344 120.882812 31.867188 C 120.996094 31.582031 121.136719 31.289062 121.304688 30.992188 C 121.472656 30.699219 121.65625 30.4375 121.859375 30.21875 C 122.0625 29.996094 122.246094 29.882812 122.414062 29.882812 C 122.492188 29.902344 122.53125 29.929688 122.53125 29.957031 C 122.53125 29.96875 122.449219 30.082031 122.289062 30.296875 C 122.125 30.515625 121.960938 30.765625 121.792969 31.054688 C 121.625 31.339844 121.492188 31.609375 121.394531 31.859375 C 121.292969 32.109375 121.246094 32.304688 121.246094 32.445312 Z M 123.066406 31.246094 C 123.105469 31.226562 123.105469 31.207031 123.074219 31.195312 C 123.039062 31.179688 123 31.171875 122.960938 31.171875 C 122.882812 31.171875 122.804688 31.226562 122.730469 31.335938 C 122.65625 31.441406 122.621094 31.585938 122.621094 31.761719 C 122.621094 31.910156 122.65625 32.035156 122.726562 32.132812 C 122.84375 31.984375 122.929688 31.828125 122.984375 31.667969 C 123.039062 31.503906 123.066406 31.375 123.066406 31.273438 Z M 123.066406 31.246094 "/>
<path style=" stroke:none;fill-rule:evenodd;fill:rgb(10.195923%,10.195923%,9.411621%);fill-opacity:1;" d="M 32.328125 3.824219 L 121.761719 3.824219 L 121.761719 4.234375 L 32.328125 4.234375 Z M 32.328125 3.824219 "/>
<path style=" stroke:none;fill-rule:evenodd;fill:rgb(10.195923%,10.195923%,9.411621%);fill-opacity:1;" d="M 32.285156 41.351562 L 121.71875 41.351562 L 121.71875 41.765625 L 32.285156 41.765625 Z M 32.285156 41.351562 "/>
</g>
</svg>
